<svg width="21" height="22" viewBox="0 0 21 22" fill="none" xmlns="http://www.w3.org/2000/svg">
<path d="M15.6267 14.5129L19 17.8861L17.8861 19L14.5129 15.6267C13.3 16.5971 11.7618 17.1776 10.0888 17.1776C6.17579 17.1776 3 14.0018 3 10.0888C3 6.17579 6.17579 3 10.0888 3C14.0018 3 17.1776 6.17579 17.1776 10.0888C17.1776 11.7618 16.5971 13.3 15.6267 14.5129ZM14.0465 13.9284C15.0096 12.9358 15.6023 11.5819 15.6023 10.0888C15.6023 7.04259 13.135 4.57529 10.0888 4.57529C7.04259 4.57529 4.57529 7.04259 4.57529 10.0888C4.57529 13.135 7.04259 15.6023 10.0888 15.6023C11.5819 15.6023 12.9358 15.0096 13.9284 14.0465L14.0465 13.9284Z" fill="#262522"/>
</svg>
